# xmcd
#
# Track frame offsets:
#	150
#	13790
#	27418
#	40723
#	50772
#	61870
#	72340
#	92562
#	104307
#	121481
#
# Disc length: 1855
#
# Revision: 2
# Processed by: cddbd v1.5.1PL0 Copyright (c) Steve Scherf et al.
# Submitted via: dBpowerAMP V4.0
# Normalized: r0:TDELIM( - ),TSWAP
#
DISCID=83073d0a
DTITLE=Blues Artists - The Universal Collection vol. II
DYEAR=1900
DGENRE=Blues
TTITLE0=Big Bil Bronzy and Washboard Sam - By Myself
TTITLE1=Albert King - Bad luck blues
TTITLE2=Bluster Brown - Fannie Man
TTITLE3=Otis Rush - I can't stop Baby
TTITLE4=Lowell Fulson - Blues Shadows
TTITLE5=Sony Boy Williamson - Let your consciencie be your guide
TTITLE6=Lightnin' Hopkins - Glory be
TTITLE7=Jack Dupree - Blues for everybody
TTITLE8=Lightnin' Hopkins - Santa
TTITLE9=Jack Dupree - Stack-o-Lee
EXTD=
EXTT0=
EXTT1=
EXTT2=
EXTT3=
EXTT4=
EXTT5=
EXTT6=
EXTT7=
EXTT8=
EXTT9=
PLAYORDER=
